<svg xml:space="preserve" viewBox="0 0 100 100" y="0" x="0" xmlns="http://www.w3.org/2000/svg" id="圖層_1" version="1.1" style="height: 100%; width: 100%; background: none; shape-rendering: auto; animation-play-state: running; animation-delay: 0s;" width="200px" height="200px"><g class="ldl-scale" style="transform-origin: 50% 50%; transform: rotate(0deg) scale(0.8, 0.8); animation-play-state: running; animation-delay: 0s;"><g class="ldl-ani" style="animation-play-state: running; animation-delay: 0s;"><g class="ldl-layer" style="animation-play-state: running; animation-delay: 0s;"><g class="ldl-ani" style="transform: scale(0.91); transform-origin: 50px 50px; animation: 1.11111s linear -0.833333s infinite normal forwards running breath-e6d77b9e-0a5a-4221-9734-fe422f1eeac5;"><path fill="#d1d1d1" d="M66.131 85.737c-1.33 0-3.2-.263-5.268-.741l-6.075-1.403a11.522 11.522 0 0 0-.656-.131c-1.509 1.865-3.204 2.204-4.235 2.204s-2.727-.339-4.235-2.203c-.233.04-.452.084-.656.131l-6.074 1.403c-2.067.478-3.938.741-5.268.741-.643 0-2.601 0-3.871-1.554a3.82 3.82 0 0 1-.788-3.19c.208-1.023.557-2.736 7.318-6.247l3.401-1.766c1.595-.828 3.007-3.307 2.906-5.101l-.61-10.85c-.026-.457-.206-1.223-1.126-1.223-.136 0-.282.018-.433.053l-25.768 5.95c-1.16.268-2.274.404-3.308.404-2.988 0-4.549-1.144-5.332-2.103a4.697 4.697 0 0 1-.955-3.926c.702-3.438 5.137-6.562 7.647-7.865l24.868-12.915c1.923-.999 2.988-2.895 2.999-3.45-.144-2.56-.247-4.285-.264-4.494a4.33 4.33 0 0 1-.012-.302v-.21c0-4.306 3.375-12.687 9.563-12.687 6.188 0 9.564 8.381 9.564 12.687v.208c0 .103-.004.206-.013.309a590.01 590.01 0 0 0-.261 4.448c.021.526 1.098 2.398 3.002 3.387l25.064 13.017c2.51 1.304 6.946 4.427 7.647 7.865a4.694 4.694 0 0 1-.955 3.926c-.784.959-2.345 2.103-5.333 2.103-1.034 0-2.147-.136-3.308-.404l-25.97-5.998a1.927 1.927 0 0 0-.433-.052c-.92 0-1.101.766-1.126 1.223l-.613 10.896c-.101 1.794 1.311 4.273 2.906 5.101l3.4 1.766c6.759 3.51 7.109 5.222 7.317 6.245A3.816 3.816 0 0 1 70 84.18c-1.267 1.557-3.225 1.557-3.869 1.557z" style="fill: rgb(41, 38, 100); animation-play-state: running; animation-delay: 0s;"></path></g></g><g class="ldl-layer" style="animation-play-state: running; animation-delay: 0s;"><g class="ldl-ani" style="transform: scale(0.91); transform-origin: 50px 50px; animation: 1.11111s linear -1.11111s infinite normal forwards running breath-e6d77b9e-0a5a-4221-9734-fe422f1eeac5;"><path fill="#454545" d="M91.31 56.917c-.296-1.452-2.881-3.857-5.745-5.344L60.501 38.556c-2.864-1.487-5.101-4.568-4.973-6.847.128-2.279.249-4.327.268-4.551v-.208c0-3.183-2.64-9.021-5.897-9.021s-5.896 5.837-5.896 9.021v.21c.019.226.141 2.297.271 4.603s-2.107 5.409-4.97 6.896L14.435 51.573c-2.864 1.487-5.448 3.892-5.745 5.344-.296 1.452 2.034 2.046 5.178 1.32l25.769-5.951c3.144-.726 5.864 1.316 6.045 4.537l.61 10.851c.181 3.221-2.014 7.074-4.877 8.561l-3.401 1.766c-2.864 1.487-5.3 3.163-5.414 3.724s2.364.426 5.508-.3l6.075-1.403c.984-.227 2.163-.383 3.415-.468.576 1.366 1.393 2.446 2.3 2.446.907 0 1.725-1.08 2.301-2.446 1.252.085 2.432.241 3.415.468l6.075 1.403c3.144.726 5.622.861 5.507.3s-2.551-2.237-5.415-3.724l-3.4-1.766c-2.864-1.487-5.058-5.339-4.877-8.561l.613-10.896c.181-3.221 2.902-5.263 6.045-4.537l25.969 5.997c3.145.725 5.475.131 5.179-1.321z" style="fill: rgb(102, 115, 149); animation-play-state: running; animation-delay: 0s;"></path></g></g><metadata xmlnsD="https://loading.io/stock/" style="animation-play-state: running; animation-delay: 0s;">
</metadata></g></g><style id="breath-e6d77b9e-0a5a-4221-9734-fe422f1eeac5" data-anikit="">@keyframes breath-e6d77b9e-0a5a-4221-9734-fe422f1eeac5
{
  0% {
    animation-timing-function: cubic-bezier(0.9647,0.2413,-0.0705,0.7911);
    transform: scale(0.9099999999999999);
  }
  51% {
    animation-timing-function: cubic-bezier(0.9226,0.2631,-0.0308,0.7628);
    transform: scale(1.02994);
  }
  100% {
    transform: scale(0.9099999999999999);
  }
}</style><!-- [ldio] generated by https://loading.io/ --></svg>
